<?xml version="1.0" standalone="no"?>
<!DOCTYPE svg PUBLIC "-//W3C//DTD SVG 20010904//EN"
 "http://www.w3.org/TR/2001/REC-SVG-20010904/DTD/svg10.dtd">
<svg version="1.0" xmlns="http://www.w3.org/2000/svg"
 width="1080.000000pt" height="1080.000000pt" viewBox="0 0 1080.000000 1080.000000"
 preserveAspectRatio="xMidYMid meet">
<metadata>
Created by potrace 1.11, written by Peter Selinger 2001-2013
</metadata>
<g transform="translate(0.000000,1080.000000) scale(0.100000,-0.100000)"
fill="#000000" stroke="none">
<path d="M569 10610 c-222 -21 -359 -134 -416 -341 -17 -61 -18 -309 -18
-4874 0 -4524 1 -4814 17 -4872 50 -179 151 -281 329 -330 61 -17 311 -18
4919 -18 4608 0 4858 1 4919 18 175 48 275 147 329 324 16 55 17 304 20 4351
l2 4294 -27 -33 -28 -33 -5 -4275 -5 -4276 -21 -57 c-45 -117 -115 -187 -232
-232 l-57 -21 -4895 0 -4895 0 -57 21 c-117 45 -187 115 -232 232 l-21 57 0
4850 0 4850 21 57 c45 117 115 187 232 232 l57 21 3596 3 3595 2 29 30 29 30
-3555 -1 c-1955 -1 -3588 -5 -3630 -9z"/>
<path d="M8085 10613 c-29 -6 -85 -36 -85 -45 0 -5 108 -8 241 -8 136 0 238 4
235 9 -3 5 -26 18 -51 30 -39 18 -62 21 -182 20 -76 -1 -147 -3 -158 -6z"/>
<path d="M8525 10590 c24 -25 37 -30 75 -30 40 0 48 3 58 25 7 14 12 28 12 30
0 3 -39 5 -87 5 l-87 0 29 -30z"/>
<path d="M8781 10591 l11 -30 751 -3 c741 -3 753 -3 809 -24 118 -45 188 -115
231 -232 18 -50 22 -87 26 -284 l6 -228 29 -27 28 -28 -5 240 c-6 264 -15 315
-69 417 -53 99 -144 167 -275 205 -51 15 -142 17 -805 21 l-747 3 10 -30z"/>
<path d="M7910 10491 c0 -9 184 -51 224 -51 12 0 65 -9 117 -20 52 -12 110
-22 129 -24 33 -3 104 -15 215 -36 28 -5 67 -12 89 -14 77 -9 46 -16 -74 -16
-80 0 -159 7 -224 19 -299 57 -342 63 -432 62 -53 0 -99 -3 -105 -6 -15 -10
-59 -91 -80 -147 -32 -86 -49 -174 -56 -283 -5 -94 -4 -104 13 -112 18 -10
118 -29 269 -53 156 -25 316 -53 430 -76 66 -13 130 -24 142 -24 11 0 65 -8
119 -19 55 -10 133 -24 174 -30 41 -6 138 -23 215 -37 77 -14 190 -34 250 -44
61 -11 148 -26 195 -35 97 -17 187 -19 224 -5 16 6 28 20 31 37 15 68 81 176
141 232 58 54 61 58 56 96 -6 51 -38 94 -104 137 -97 64 -169 85 -388 119 -41
6 -118 20 -170 30 -52 10 -106 19 -122 19 -15 0 -67 9 -115 21 -48 11 -115 24
-148 28 -52 7 -44 9 66 10 74 0 158 -5 200 -13 41 -8 110 -20 154 -26 44 -7
125 -21 180 -31 55 -11 123 -22 152 -25 75 -7 154 -46 218 -107 17 -16 38 -33
48 -39 33 -18 2 25 -58 80 -72 66 -96 74 -380 121 -66 12 -142 25 -170 30 -34
6 59 9 300 8 331 -2 353 -3 407 -24 121 -45 199 -126 234 -244 15 -51 21 -59
42 -59 23 0 24 3 19 36 -9 57 -61 158 -106 207 -23 24 -67 58 -99 75 -119 63
-125 64 -712 73 -527 7 -562 8 -629 24 -19 4 -50 8 -70 10 -20 2 -85 12 -146
24 -60 12 -175 33 -255 47 -80 14 -190 34 -245 45 -109 21 -165 24 -165 10z
m208 -233 c12 -6 22 -19 22 -29 0 -37 -80 -89 -135 -89 -27 0 -28 -2 -60 -92
-15 -43 -20 -48 -47 -48 -25 0 -29 3 -23 18 14 36 75 205 75 208 0 2 -14 3
-31 2 -41 -4 -48 16 -12 30 56 22 165 22 211 0z m578 -211 c-21 -68 -37 -102
-46 -102 -8 0 -16 10 -18 23 -6 43 -82 15 -82 -31 0 -18 5 -19 55 -13 33 4 55
2 55 -4 0 -16 -37 -30 -82 -30 -68 0 -97 32 -72 81 16 31 74 62 111 57 23 -3
27 2 46 62 23 70 35 85 53 69 9 -7 4 -35 -20 -112z m-420 72 c21 -17 17 -37
-13 -65 -25 -24 -28 -31 -25 -85 3 -47 1 -59 -11 -59 -16 0 -37 49 -37 86 0
34 -20 30 -33 -6 -19 -50 -40 -38 -35 19 l5 49 -36 -19 c-20 -10 -41 -19 -48
-19 -7 0 -13 -5 -13 -10 0 -6 17 -8 43 -4 l42 5 -24 -20 c-28 -25 -68 -27 -93
-4 -26 23 -22 54 11 90 47 52 110 58 121 13 6 -24 7 -23 19 13 l13 37 50 -5
c28 -3 57 -10 64 -16z m100 10 c3 -6 -1 -18 -9 -27 -14 -13 -18 -13 -32 -2
-16 13 -15 15 1 27 22 16 31 16 40 2z m-32 -58 c8 -13 -51 -141 -65 -141 -15
0 -7 61 14 113 15 35 39 48 51 28z m959 -10 c16 -16 3 -23 -50 -25 l-48 -1
-32 -94 c-45 -134 -49 -141 -78 -141 -14 0 -25 1 -25 3 0 2 18 54 39 115 l40
112 -33 0 c-18 0 -41 7 -52 15 -16 13 -17 16 -4 24 19 13 229 6 243 -8z m-816
-15 c3 -3 6 -20 5 -37 -2 -68 -88 -114 -134 -72 -34 31 -14 104 35 122 20 8
82 -1 94 -13z m286 18 c3 -3 3 -12 0 -20 -7 -18 -53 -18 -53 0 0 20 38 34 53
20z m677 -41 c0 -10 -7 -40 -15 -67 -8 -27 -15 -52 -15 -56 0 -4 18 -10 40
-14 22 -3 43 -14 49 -24 14 -24 24 -9 51 76 18 54 28 72 42 72 10 0 18 -6 18
-12 0 -7 -19 -70 -42 -140 -42 -129 -68 -164 -68 -93 0 19 -1 35 -2 35 -2 0
-25 -11 -52 -25 -57 -29 -75 -31 -101 -11 -18 13 -16 15 25 25 60 15 95 34 95
51 0 29 -44 23 -74 -9 -35 -37 -39 -38 -51 -8 -8 21 -9 20 -15 -10 -9 -41 -33
-63 -45 -43 -6 9 -23 13 -49 11 -32 -2 -42 2 -51 19 -31 58 28 112 123 114
l62 1 20 63 c14 45 24 62 37 62 11 0 18 -7 18 -17z m-700 -18 c0 -21 -63 -135
-75 -135 -8 0 -15 1 -15 3 1 19 32 112 40 123 11 13 50 20 50 9z m128 -32 c2
-8 -5 -13 -16 -13 -25 0 -68 -34 -75 -60 -7 -26 5 -33 39 -20 31 12 42 6 25
-14 -18 -22 -66 -29 -90 -14 -43 27 -22 90 44 127 25 14 67 10 73 -6z m852
-153 c0 -22 -45 -60 -71 -60 -19 0 -35 -17 -25 -27 3 -4 18 -1 32 6 34 15 42
7 19 -19 -36 -39 -105 -14 -105 38 0 29 59 89 92 94 32 6 58 -9 58 -32z"/>
<path d="M8000 10215 c-6 -19 -10 -40 -8 -46 6 -17 73 35 76 59 3 18 -1 22
-27 22 -25 0 -31 -5 -41 -35z"/>
<path d="M8213 10099 c-13 -5 -23 -15 -23 -24 0 -18 2 -18 35 -3 40 18 29 43
-12 27z"/>
<path d="M8060 10075 c-7 -9 -10 -18 -7 -21 7 -8 47 14 47 26 0 15 -26 12 -40
-5z"/>
<path d="M8396 9998 c-22 -30 -20 -48 4 -48 20 0 40 27 40 54 0 23 -26 19 -44
-6z"/>
<path d="M9250 9858 c-21 -23 -27 -48 -11 -48 29 0 59 21 63 44 7 33 -22 36
-52 4z"/>
<path d="M9656 9804 c-4 -11 0 -15 16 -12 12 2 23 9 26 16 6 18 -35 15 -42 -4z"/>
<path d="M7589 10437 c-14 -12 -40 -41 -58 -64 l-32 -43 -3337 -2 c-3164 -3
-3340 -4 -3396 -21 -176 -53 -275 -153 -324 -330 -16 -58 -17 -331 -17 -4552
0 -4259 1 -4493 18 -4554 49 -178 151 -279 330 -329 58 -16 334 -17 4617 -17
4283 0 4559 1 4617 17 177 49 277 147 330 324 17 56 18 258 21 4072 l2 4012
-30 0 -30 0 -2 -4027 -3 -4028 -21 -57 c-45 -117 -115 -187 -232 -232 l-57
-21 -4595 0 -4595 0 -57 21 c-117 45 -187 115 -232 232 l-21 57 0 4530 0 4530
21 57 c45 117 115 187 232 232 l57 21 3342 3 c2681 2 3342 0 3338 -10 -25 -68
10 -276 42 -245 3 3 -2 34 -11 69 -15 62 -14 164 1 179 5 4 19 9 33 11 31 4
43 54 14 60 -13 2 -8 13 25 53 22 27 41 55 41 62 0 17 0 16 -31 -10z"/>
<path d="M1153 10039 c-17 -5 -40 -20 -51 -34 -29 -36 -100 -177 -122 -239
-18 -52 -18 -55 0 -71 10 -9 31 -20 46 -24 20 -6 28 -14 27 -27 -1 -10 -29
-183 -62 -384 -33 -201 -61 -378 -63 -394 -3 -25 -10 -31 -67 -51 -35 -13 -70
-30 -78 -38 -22 -22 -7 -54 38 -84 38 -25 44 -26 132 -20 95 6 249 45 302 76
19 11 31 27 33 43 4 37 -30 58 -95 58 -29 0 -53 1 -53 3 0 11 32 231 40 277
26 142 111 723 117 792 6 72 5 77 -20 102 -28 28 -64 32 -124 15z"/>
<path d="M1945 10040 c-132 -15 -258 -52 -285 -85 -10 -12 -10 -21 -2 -39 8
-19 4 -58 -17 -178 -37 -199 -57 -418 -42 -447 18 -33 57 -37 135 -12 207 65
329 77 387 38 30 -20 34 -29 37 -70 4 -67 -20 -95 -155 -185 -127 -83 -302
-166 -438 -207 -49 -15 -99 -36 -110 -47 -18 -17 -19 -20 -5 -46 22 -38 83
-69 162 -82 114 -20 189 3 367 109 293 174 421 355 390 550 -12 77 -46 123
-116 157 -77 38 -206 44 -338 16 -49 -11 -91 -19 -93 -17 -5 5 38 308 45 316
4 4 53 14 108 23 285 47 399 85 410 137 14 63 -35 79 -230 78 -77 -1 -171 -5
-210 -9z"/>
<path d="M7775 9806 c76 -35 104 -46 121 -46 27 0 7 -14 -56 -39 -30 -12 -65
-30 -78 -41 -22 -19 -23 -20 -8 -77 46 -175 142 -341 263 -454 87 -81 121 -98
261 -129 120 -26 135 -28 185 -16 31 7 77 24 104 38 44 23 48 28 45 57 -6 54
45 91 93 69 28 -13 40 -45 31 -83 -7 -28 -59 -48 -88 -34 -23 12 -34 11 -50
-4 -7 -7 -33 -27 -57 -45 -25 -17 -42 -32 -38 -32 4 0 184 -39 400 -86 287
-63 409 -86 457 -85 173 2 291 73 355 213 41 90 -7 259 -95 336 -41 36 -121
81 -175 99 -33 11 -152 40 -265 64 -114 24 -192 45 -177 47 16 2 75 -6 130
-18 56 -12 120 -24 142 -26 22 -2 87 -13 144 -25 106 -21 265 -30 314 -16 18
5 27 14 27 27 0 17 -4 18 -26 10 -39 -15 -119 -12 -239 10 -60 11 -139 25
-175 31 -73 12 -265 46 -445 80 -66 12 -134 23 -152 25 -17 1 -82 12 -145 23
-62 12 -142 26 -178 32 -36 5 -111 19 -167 30 -56 11 -119 22 -141 24 -21 2
-83 12 -138 24 -54 11 -124 22 -154 26 -53 5 -54 5 -25 -9z m610 -196 c22 -6
46 -12 53 -13 37 -9 34 -26 -29 -181 -47 -115 -68 -156 -79 -153 -25 5 -16 57
34 184 25 65 46 121 46 124 0 7 -129 9 -152 3 -9 -3 -21 -18 -26 -34 -10 -28
-9 -29 28 -35 21 -4 44 -13 50 -20 9 -10 3 -14 -29 -20 -22 -4 -48 -4 -59 -1
-14 5 -21 -3 -35 -41 -9 -27 -17 -51 -17 -55 0 -3 19 -9 43 -13 53 -9 77 -22
77 -41 0 -12 -15 -14 -91 -12 -113 4 -123 13 -95 85 30 79 31 93 7 93 -12 0
-21 6 -21 15 0 10 10 15 30 15 19 0 33 7 40 19 15 30 12 51 -8 51 -22 0 -55
33 -45 45 10 10 226 -2 278 -15z m442 -16 c-3 -3 -12 -4 -19 -1 -8 3 -5 6 6 6
11 1 17 -2 13 -5z m123 -24 c20 -6 21 -8 5 -8 -11 0 -31 4 -45 8 -20 6 -21 8
-5 8 11 0 31 -4 45 -8z m367 -176 c3 -8 -2 -32 -10 -52 -28 -67 -29 -79 -7
-85 31 -8 24 -25 -13 -32 -31 -6 -36 -12 -56 -70 -23 -64 -43 -91 -59 -81 -10
6 0 77 16 118 9 23 8 28 -10 40 -26 18 -16 38 18 38 15 0 27 7 31 18 34 101
74 148 90 106z m-751 -4 c21 0 25 -32 8 -57 -16 -25 -74 -55 -95 -51 -6 2 -14
-3 -17 -11 -4 -11 5 -12 43 -7 37 6 46 5 43 -6 -6 -18 -47 -38 -80 -38 -34 0
-68 32 -68 64 0 49 90 122 135 111 11 -3 25 -5 31 -5z m139 -40 c6 -5 31 -10
55 -12 l45 -3 -1 -45 c-2 -51 -37 -120 -61 -120 -16 0 -14 33 4 99 11 40 -19
20 -45 -29 -25 -51 -34 -57 -51 -36 -9 11 -9 22 4 51 35 85 7 88 -35 5 -50
-99 -76 -72 -40 41 l23 71 46 -7 c25 -4 51 -11 56 -15z m259 -50 c46 -17 27
-69 -35 -94 -19 -7 -40 -11 -46 -9 -7 3 -13 -3 -13 -12 0 -14 8 -15 48 -10
l47 6 -28 -25 c-46 -43 -115 -27 -131 29 -9 31 27 79 75 103 51 25 50 25 83
12z m137 -34 c42 -4 51 -15 43 -49 -8 -39 -42 -109 -58 -119 -19 -12 -27 20
-16 63 6 23 9 43 6 46 -13 13 -36 -9 -55 -52 -12 -28 -26 -45 -33 -42 -18 6
-13 74 9 126 17 40 20 42 48 36 17 -4 42 -8 56 -9z m307 -60 c23 -14 12 -33
-25 -42 -44 -11 -54 -30 -21 -43 13 -5 31 -18 41 -29 18 -20 18 -21 -2 -41
-35 -35 -144 -54 -169 -29 -24 24 -12 37 43 43 56 7 71 19 35 28 -27 7 -43 52
-29 78 19 36 93 56 127 35z"/>
<path d="M8500 9345 c-7 -9 -10 -18 -6 -22 8 -9 56 14 56 27 0 15 -36 12 -50
-5z"/>
<path d="M8904 9256 c-10 -8 -16 -18 -12 -22 10 -9 58 12 58 26 0 14 -23 12
-46 -4z"/>
<path d="M7650 9360 c0 -23 54 -112 85 -140 26 -23 26 -22 -7 30 -19 30 -45
71 -56 90 -12 19 -22 28 -22 20z"/>
<path d="M4303 8343 l-723 -3 0 -49 0 -49 63 -6 c69 -8 148 -40 186 -76 54
-52 51 78 51 -2197 0 -2037 -1 -2109 -19 -2149 -32 -70 -103 -108 -238 -129
l-43 -7 0 -49 0 -49 595 0 595 0 0 49 0 49 -71 10 c-72 11 -136 38 -178 75
-53 49 -51 8 -51 1115 l0 1029 478 6 c488 6 622 13 867 48 401 57 666 174 827
367 150 180 231 557 199 932 -37 432 -202 700 -534 866 -177 89 -419 155 -697
189 -138 16 -456 36 -535 32 -27 -1 -375 -3 -772 -4z m1087 -127 c113 -21 274
-73 362 -117 217 -109 355 -272 437 -517 87 -258 87 -654 -1 -922 -63 -193
-167 -332 -330 -437 -250 -162 -523 -213 -1145 -213 l-243 0 0 1029 c0 703 3
1039 11 1058 23 60 84 106 174 129 77 20 609 12 735 -10z m882 -308 c78 -78
146 -171 186 -254 42 -84 100 -267 112 -349 13 -93 13 -255 -1 -352 -16 -120
-81 -305 -141 -407 -56 -95 -179 -233 -258 -291 -69 -51 -68 -43 3 23 35 31
73 71 86 87 142 187 194 294 235 478 37 163 37 390 1 560 -26 122 -76 258
-122 330 -62 95 -146 198 -210 256 l-68 62 55 -38 c30 -21 85 -68 122 -105z
m-2080 -1948 c0 -899 -4 -1716 -9 -1815 l-9 -180 -9 270 c-13 351 -13 3073 0
3450 l9 290 9 -190 c5 -104 9 -926 9 -1825z"/>
<path d="M3326 2964 c-14 -14 -16 -78 -16 -555 l0 -539 60 0 60 0 0 305 0 305
24 15 c65 43 143 37 165 -11 7 -17 11 -119 11 -320 l0 -295 63 3 62 3 0 335
c0 378 -2 387 -73 417 -49 20 -148 13 -202 -16 -22 -11 -43 -21 -45 -21 -3 0
-5 88 -5 195 l0 195 -44 0 c-27 0 -51 -6 -60 -16z"/>
<path d="M5556 2964 c-14 -14 -16 -78 -16 -555 l0 -539 60 0 60 0 0 305 0 305
24 15 c65 43 143 37 165 -11 7 -17 11 -119 11 -320 l0 -295 63 3 62 3 0 335
c0 378 -2 387 -73 417 -49 20 -148 13 -202 -16 -22 -11 -43 -21 -45 -21 -3 0
-5 88 -5 195 l0 195 -44 0 c-27 0 -51 -6 -60 -16z"/>
<path d="M2770 2400 l0 -531 58 3 57 3 3 213 2 212 48 0 c125 0 221 64 258
171 28 79 26 257 -2 319 -49 107 -121 140 -306 140 l-118 0 0 -530z m249 405
c41 -21 61 -79 61 -173 -1 -91 -24 -168 -60 -194 -14 -10 -49 -21 -78 -25
l-52 -6 0 207 0 206 50 0 c28 0 64 -7 79 -15z"/>
<path d="M4027 2630 c-75 -23 -136 -106 -157 -217 -17 -88 -8 -363 14 -424 32
-89 95 -129 200 -129 119 0 191 54 229 174 19 61 22 93 22 231 0 125 -4 173
-18 218 -22 71 -75 133 -125 147 -44 12 -125 12 -165 0z m132 -119 c32 -32 44
-98 45 -246 1 -150 -12 -228 -46 -270 -15 -20 -28 -25 -63 -25 -80 0 -105 66
-105 273 0 145 18 231 56 265 32 28 87 29 113 3z"/>
<path d="M4542 2621 c-61 -21 -85 -40 -106 -86 -44 -91 -10 -165 127 -281 119
-100 147 -135 147 -184 0 -46 -21 -76 -66 -90 -43 -15 -132 -7 -174 15 -27 14
-30 14 -40 -4 -16 -30 -12 -76 8 -93 41 -37 179 -50 265 -24 99 30 147 94 147
196 0 98 -34 146 -183 265 -87 68 -114 107 -102 144 15 49 126 67 219 35 51
-18 61 -14 71 28 9 35 -26 72 -81 87 -60 17 -172 13 -232 -8z"/>
<path d="M5095 2633 c-11 -3 -44 -14 -72 -25 l-53 -19 0 -504 c0 -553 -4 -515
60 -515 61 0 60 -2 60 166 0 85 2 154 4 154 2 0 20 -7 39 -15 85 -35 178 -6
227 71 48 77 65 167 65 355 0 164 0 166 -30 225 -42 81 -89 107 -200 110 -44
2 -89 0 -100 -3z m148 -123 c38 -30 49 -79 49 -211 -1 -182 -31 -291 -87 -317
-37 -17 -59 -15 -89 9 l-26 20 0 248 c0 247 0 248 23 259 37 18 102 14 130 -8z"/>
<path d="M6230 2618 c-53 -27 -105 -92 -121 -151 -61 -228 -21 -524 79 -581
43 -24 156 -33 207 -16 57 19 111 73 134 136 64 169 43 488 -37 578 -51 57
-182 74 -262 34z m167 -126 c29 -43 36 -112 31 -279 -6 -192 -29 -243 -108
-243 -50 0 -68 16 -86 76 -21 75 -22 318 0 388 22 70 51 98 100 94 33 -2 45
-9 63 -36z"/>
<path d="M6805 2633 c-11 -3 -46 -16 -77 -30 l-58 -26 0 -353 0 -354 59 0 c44
0 60 4 65 16 3 9 6 148 6 310 l0 293 31 17 c21 11 50 15 88 12 l56 -3 0 50 c0
43 -3 51 -25 62 -24 12 -104 16 -145 6z"/>
<path d="M7759 2624 c-30 -9 -59 -28 -83 -54 -33 -37 -36 -45 -36 -103 0 -83
13 -102 154 -226 92 -81 118 -110 127 -141 32 -106 -75 -161 -218 -111 l-53
18 -10 -33 c-27 -79 19 -108 170 -109 84 0 112 4 140 19 84 44 114 93 114 187
0 87 -31 141 -127 217 -119 95 -157 136 -157 169 0 17 9 38 20 48 30 27 126
32 191 11 59 -20 79 -11 79 33 0 35 -33 66 -85 80 -55 15 -170 13 -226 -5z"/>
<path d="M7070 2328 c0 -189 4 -318 11 -343 15 -52 65 -100 120 -115 61 -17
191 -7 262 20 l57 21 0 360 0 359 -60 0 -60 0 0 -314 c0 -356 5 -336 -85 -344
-68 -6 -100 13 -114 65 -7 22 -11 154 -11 316 l0 277 -60 0 -60 0 0 -302z"/>
<path d="M4500 1413 c-14 -2 -42 -8 -62 -14 -33 -8 -38 -14 -38 -39 0 -34 4
-35 40 -15 39 22 126 19 150 -5 45 -45 1 -110 -75 -110 -20 0 -25 -5 -25 -25
0 -23 4 -25 40 -25 96 0 123 -112 39 -156 -37 -19 -101 -14 -149 11 l-30 16 0
-31 c0 -24 6 -33 28 -41 88 -34 192 -15 233 42 42 59 21 161 -36 175 -32 8
-32 18 0 32 32 15 58 67 50 101 -9 37 -42 69 -79 76 -57 12 -61 12 -86 8z"/>
<path d="M4834 1391 c-47 -29 -66 -87 -67 -201 0 -151 39 -217 136 -227 59 -6
106 21 135 77 21 41 23 56 20 160 -3 127 -21 174 -73 198 -40 18 -116 15 -151
-7z m138 -49 c39 -39 47 -227 12 -293 -18 -37 -64 -50 -109 -33 -40 16 -62
118 -50 230 6 56 12 72 36 97 25 25 35 28 62 23 18 -4 40 -14 49 -24z"/>
<path d="M5423 1390 c-41 -25 -61 -55 -67 -105 -8 -55 12 -105 54 -133 30 -20
44 -23 95 -19 33 2 69 8 79 12 17 7 18 5 12 -21 -17 -72 -83 -119 -154 -110
-42 6 -43 5 -40 -22 2 -22 9 -28 35 -30 89 -9 182 54 208 141 35 118 9 246
-57 287 -44 26 -122 27 -165 0z m126 -35 c50 -25 72 -143 32 -165 -29 -15
-113 -12 -138 5 -31 22 -40 78 -19 121 24 51 73 66 125 39z"/>
<path d="M5750 1380 l0 -30 120 0 c66 0 120 -2 120 -4 0 -3 -45 -87 -100 -188
-99 -182 -100 -183 -74 -186 15 -2 30 0 34 5 4 4 51 90 105 190 69 131 96 190
93 210 l-3 28 -147 3 -148 3 0 -31z"/>
<path d="M6216 1286 c-92 -108 -106 -129 -106 -160 l0 -36 105 0 105 0 0 -60
c0 -57 1 -60 25 -60 24 0 25 3 25 60 l0 60 35 0 c31 0 35 3 35 25 0 22 -4 25
-35 25 l-35 0 0 135 0 135 -24 0 c-18 0 -49 -30 -130 -124z m101 -143 c-3 -2
-41 -3 -85 -1 l-81 3 82 95 82 95 3 -94 c1 -51 1 -95 -1 -98z"/>
<path d="M5196 1042 c-5 -8 -46 -165 -46 -176 0 -3 8 -6 19 -6 18 0 34 30 86
153 l15 37 -34 0 c-19 0 -37 -4 -40 -8z"/>
</g>
</svg>
